<svg width="40" height="41" viewBox="0 0 40 41" fill="none" xmlns="http://www.w3.org/2000/svg">
<path d="M22.8306 39.2142C22.8306 39.8416 23.3416 40.3501 23.9726 40.3501C24.6026 40.3501 25.1136 39.8416 25.1136 39.2142V19.9953C25.1136 19.3679 24.6026 18.8594 23.9726 18.8594C23.3416 18.8594 22.8306 19.3679 22.8306 19.9953V39.2142Z" fill="url(#paint0_linear_1421_191)"/>
<path d="M18.4326 37.2647C18.4326 37.9209 18.9666 38.4528 19.6266 38.4528C20.2856 38.4528 20.8196 37.9209 20.8196 37.2647V23.3287C20.8196 22.6725 20.2856 22.1406 19.6266 22.1406C18.9666 22.1406 18.4326 22.6725 18.4326 23.3287V37.2647Z" fill="url(#paint1_linear_1421_191)"/>
<path d="M14.0059 33.9069C14.0059 34.5568 14.5353 35.0836 15.1883 35.0836C15.8413 35.0836 16.3707 34.5568 16.3707 33.9069V26.5595C16.3707 25.9096 15.8413 25.3828 15.1883 25.3828C14.5353 25.3828 14.0059 25.9096 14.0059 26.5595V33.9069Z" fill="url(#paint2_linear_1421_191)"/>
<path d="M34.0047 19.3196L28.8737 16.005C28.3867 15.6899 27.7347 15.8279 27.4177 16.3133L27.4167 16.3147C27.1007 16.8 27.2387 17.4489 27.7267 17.764L32.8577 21.0786C33.3457 21.3937 33.9977 21.2557 34.3137 20.7703L34.3147 20.7689C34.6317 20.2836 34.4927 19.6347 34.0047 19.3196Z" fill="url(#paint3_linear_1421_191)"/>
<path d="M24.5067 13.0404L19.0097 9.48937C18.5227 9.17429 17.8697 9.31233 17.5536 9.7977L17.5527 9.79907C17.2361 10.2845 17.3748 10.9334 17.8627 11.2484L23.3587 14.7994C23.8467 15.1145 24.4987 14.9765 24.8157 14.4911L24.8167 14.4897C25.1327 14.0044 24.9947 13.3555 24.5067 13.0404Z" fill="url(#paint4_linear_1421_191)"/>
<path d="M19.8479 15.8904L9.6292 9.42164C9.1385 9.11106 8.4878 9.2551 8.1757 9.74336L8.1749 9.74474C7.8628 10.233 8.0075 10.8806 8.4981 11.1911L18.7169 17.6599C19.2079 17.9705 19.8579 17.8264 20.1709 17.3382V17.3368C20.4829 16.8485 20.3389 16.201 19.8479 15.8904Z" fill="url(#paint5_linear_1421_191)"/>
<path d="M15.6804 19.2602L1.93808 10.6078C1.44668 10.2984 0.796278 10.444 0.485378 10.9331L0.484485 10.9344C0.173685 11.4235 0.319982 12.0707 0.811382 12.3801L14.5538 21.0325C15.0451 21.3418 15.6955 21.1962 16.0064 20.7072L16.0073 20.7058C16.3181 20.2168 16.1718 19.5696 15.6804 19.2602Z" fill="url(#paint6_linear_1421_191)"/>
<path d="M38.8687 27.9656L24.4147 18.8656C23.9237 18.5562 23.2737 18.7018 22.9627 19.1908L22.9617 19.1922C22.6507 19.6812 22.7967 20.3285 23.2887 20.6379L37.7417 29.7379C38.2327 30.0472 38.8837 29.9016 39.1947 29.4126V29.4112C39.5057 28.9222 39.3597 28.275 38.8687 27.9656Z" fill="url(#paint7_linear_1421_191)"/>
<path d="M30.9305 28.9268L20.1125 22.1156C19.6215 21.8062 18.9705 21.9518 18.6595 22.4408V22.4422C18.3485 22.9312 18.4945 23.5784 18.9855 23.8878L29.8045 30.6991C30.2955 31.0085 30.9455 30.8628 31.2565 30.3738L31.2575 30.3725C31.5685 29.8834 31.4225 29.2362 30.9305 28.9268Z" fill="url(#paint8_linear_1421_191)"/>
<path d="M24.0049 14.9639H24.0069C24.6169 14.9639 25.1119 14.4714 25.1119 13.8639V6.02187C25.1119 5.41436 24.6169 4.92188 24.0069 4.92188H24.0049C23.3949 4.92188 22.8999 5.41436 22.8999 6.02187V13.8639C22.8999 14.4714 23.3949 14.9639 24.0049 14.9639Z" fill="url(#paint9_linear_1421_191)"/>
<path d="M19.5407 17.9675H19.5427C20.2017 17.9675 20.7367 17.4356 20.7367 16.7794V2.86781C20.7367 2.21163 20.2017 1.67969 19.5427 1.67969H19.5407C18.8817 1.67969 18.3477 2.21163 18.3477 2.86781V16.7794C18.3477 17.4356 18.8817 17.9675 19.5407 17.9675Z" fill="url(#paint10_linear_1421_191)"/>
<path d="M14.0117 20.0562C14.0117 20.7088 14.543 21.2378 15.1982 21.2378C15.8535 21.2378 16.3847 20.7088 16.3847 20.0562V1.1816C16.3847 0.529021 15.8535 0 15.1982 0C14.543 0 14.0117 0.529021 14.0117 1.1816V20.0562Z" fill="url(#paint11_linear_1421_191)"/>
<defs>
<linearGradient id="paint0_linear_1421_191" x1="23.9726" y1="40.3501" x2="23.9726" y2="18.8594" gradientUnits="userSpaceOnUse">
<stop stop-color="#EB9B1A"/>
<stop offset="0.61" stop-color="#E57B2C"/>
<stop offset="1" stop-color="#E2663A"/>
</linearGradient>
<linearGradient id="paint1_linear_1421_191" x1="19.6266" y1="38.4512" x2="19.6266" y2="22.1389" gradientUnits="userSpaceOnUse">
<stop stop-color="#EB9B1A"/>
<stop offset="0.61" stop-color="#E57B2C"/>
<stop offset="1" stop-color="#E2663A"/>
</linearGradient>
<linearGradient id="paint2_linear_1421_191" x1="15.1883" y1="35.0836" x2="15.1883" y2="25.3828" gradientUnits="userSpaceOnUse">
<stop stop-color="#EB9B1A"/>
<stop offset="0.61" stop-color="#E57B2C"/>
<stop offset="1" stop-color="#E2663A"/>
</linearGradient>
<linearGradient id="paint3_linear_1421_191" x1="30.8887" y1="17.8546" x2="32.1137" y2="14.9417" gradientUnits="userSpaceOnUse">
<stop stop-color="#02804C"/>
<stop offset="0.49" stop-color="#068A4D"/>
<stop offset="1" stop-color="#0D9A51"/>
</linearGradient>
<linearGradient id="paint4_linear_1421_191" x1="24.9537" y1="14.2492" x2="22.3017" y2="7.3492" gradientUnits="userSpaceOnUse">
<stop offset="0.05" stop-color="#00427F"/>
<stop offset="0.25" stop-color="#015F99"/>
<stop offset="0.44" stop-color="#0275AD"/>
<stop offset="0.63" stop-color="#0382B9"/>
<stop offset="0.8" stop-color="#0487BE"/>
</linearGradient>
<linearGradient id="paint5_linear_1421_191" x1="16.738" y1="14.9097" x2="15.4212" y2="5.13886" gradientUnits="userSpaceOnUse">
<stop offset="0.05" stop-color="#00427F"/>
<stop offset="0.25" stop-color="#015F99"/>
<stop offset="0.44" stop-color="#0275AD"/>
<stop offset="0.63" stop-color="#0382B9"/>
<stop offset="0.8" stop-color="#0487BE"/>
</linearGradient>
<linearGradient id="paint6_linear_1421_191" x1="11.049" y1="17.354" x2="10.8899" y2="6.42217" gradientUnits="userSpaceOnUse">
<stop offset="0.05" stop-color="#00427F"/>
<stop offset="0.25" stop-color="#015F99"/>
<stop offset="0.44" stop-color="#0275AD"/>
<stop offset="0.63" stop-color="#0382B9"/>
<stop offset="0.8" stop-color="#0487BE"/>
</linearGradient>
<linearGradient id="paint7_linear_1421_191" x1="29.1287" y1="22.5167" x2="30.7107" y2="19.5225" gradientUnits="userSpaceOnUse">
<stop stop-color="#02804C"/>
<stop offset="0.49" stop-color="#068A4D"/>
<stop offset="1" stop-color="#0D9A51"/>
</linearGradient>
<linearGradient id="paint8_linear_1421_191" x1="23.6055" y1="24.9594" x2="25.1005" y2="21.975" gradientUnits="userSpaceOnUse">
<stop stop-color="#02804C"/>
<stop offset="0.49" stop-color="#068A4D"/>
<stop offset="1" stop-color="#0D9A51"/>
</linearGradient>
<linearGradient id="paint9_linear_1421_191" x1="24.0069" y1="14.9623" x2="24.0069" y2="4.92025" gradientUnits="userSpaceOnUse">
<stop stop-color="#CD2768"/>
<stop offset="0.8" stop-color="#AD1C51"/>
<stop offset="1" stop-color="#A5194B"/>
</linearGradient>
<linearGradient id="paint10_linear_1421_191" x1="19.5407" y1="17.9675" x2="19.5407" y2="1.67969" gradientUnits="userSpaceOnUse">
<stop stop-color="#CD2768"/>
<stop offset="0.8" stop-color="#AD1C51"/>
<stop offset="1" stop-color="#A5194B"/>
</linearGradient>
<linearGradient id="paint11_linear_1421_191" x1="15.1974" y1="21.2345" x2="15.1974" y2="-0.00326468" gradientUnits="userSpaceOnUse">
<stop stop-color="#CD2768"/>
<stop offset="0.8" stop-color="#AD1C51"/>
<stop offset="1" stop-color="#A5194B"/>
</linearGradient>
</defs>
</svg>
