<svg xmlns="http://www.w3.org/2000/svg" width="145" height="59" viewBox="0 0 145 59" fill="none"><g clip-path="url(#clip0_1587_12116)"><path d="M49.3068 47.7649C49.8742 48.1272 50.3137 48.6397 50.6253 49.3023C50.9369 49.9649 51.0943 50.7336 51.0943 51.6084C51.0943 52.4832 50.9385 53.229 50.6253 53.8786C50.3137 54.5297 49.8725 55.0324 49.3068 55.3898C48.7393 55.7472 48.0866 55.9251 47.3454 55.9251C46.6632 55.9251 46.0728 55.7783 45.5759 55.4845C45.079 55.1907 44.7018 54.7615 44.4476 54.1984V58.4646C44.4476 58.6262 44.4017 58.7551 44.3082 58.853C44.2164 58.9509 44.0884 58.9999 43.9261 58.9999C43.7637 58.9999 43.6342 58.9509 43.5358 58.853C43.4374 58.7551 43.3882 58.6262 43.3882 58.4646V47.7927C43.3882 47.6311 43.4374 47.5022 43.5358 47.4042C43.6342 47.3063 43.7637 47.2574 43.9261 47.2574C44.0884 47.2574 44.2147 47.3063 44.3082 47.4042C44.4 47.5022 44.4476 47.6311 44.4476 47.7927V48.9498C44.7018 48.3851 45.0773 47.9575 45.5759 47.6637C46.0728 47.37 46.6632 47.2231 47.3454 47.2231C48.085 47.2231 48.7393 47.4042 49.3068 47.7666V47.7649ZM49.2641 54.1021C49.7561 53.5097 50.0021 52.6774 50.0021 51.6067C50.0021 50.5361 49.7561 49.6614 49.2641 49.051C48.7721 48.4406 48.0866 48.1354 47.2076 48.1354C46.3286 48.1354 45.648 48.4357 45.1692 49.033C44.6887 49.632 44.4492 50.4774 44.4492 51.5708C44.4492 52.6643 44.6854 53.5081 45.161 54.1005C45.6349 54.6929 46.3122 54.99 47.1912 54.99C48.0702 54.99 48.7721 54.6929 49.2641 54.1005V54.1021Z" fill="#545454"></path><path d="M59.6417 48.0163C60.1452 48.5467 60.3961 49.3464 60.3961 50.417V55.3393C60.3961 55.5009 60.3502 55.6298 60.2567 55.7277C60.1632 55.8256 60.0369 55.8746 59.8746 55.8746C59.7122 55.8746 59.5859 55.8256 59.4925 55.7277C59.4006 55.6298 59.3531 55.5009 59.3531 55.3393V54.3029C59.1104 54.8203 58.7578 55.2218 58.2937 55.5025C57.8312 55.7848 57.2982 55.9252 56.6964 55.9252C56.1519 55.9252 55.655 55.8158 55.204 55.5971C54.753 55.3785 54.3971 55.0733 54.1364 54.6816C53.8756 54.2899 53.7461 53.859 53.7461 53.3857C53.7461 52.7639 53.9084 52.2808 54.2315 51.9348C54.5546 51.5888 55.0925 51.3424 55.8452 51.1923C56.5963 51.0421 57.6442 50.967 58.9857 50.967H59.3498V50.3289C59.3498 49.5684 59.194 49.0135 58.8808 48.6626C58.5692 48.3117 58.0772 48.1354 57.4048 48.1354C56.5488 48.1354 55.7337 48.3607 54.958 48.8095C54.9236 48.8323 54.8334 48.8927 54.6891 48.9906C54.5447 49.0886 54.4201 49.1375 54.3168 49.1375C54.2004 49.1375 54.1052 49.0951 54.0298 49.0086C53.9544 48.9221 53.9166 48.816 53.9166 48.6887C53.9166 48.4357 54.1184 48.1877 54.5234 47.9461C54.9285 47.716 55.3795 47.5381 55.8764 47.4108C56.3733 47.2835 56.8653 47.2215 57.3507 47.2215C58.3691 47.2215 59.13 47.4859 59.6319 48.0163H59.6417ZM58.6348 54.2507C59.1153 53.7448 59.3547 53.1001 59.3547 52.3167V51.7472H59.0251C57.9148 51.7472 57.0637 51.7929 56.475 51.8859C55.8846 51.9789 55.468 52.1356 55.2253 52.3608C54.9826 52.586 54.8613 52.9108 54.8613 53.3368C54.8613 53.8198 55.0466 54.2197 55.4172 54.5363C55.7878 54.8529 56.2437 55.0112 56.7882 55.0112C57.5393 55.0112 58.1559 54.7583 58.6364 54.2507H58.6348Z" fill="#545454"></path><path d="M68.2386 47.3423C68.3304 47.4108 68.378 47.5267 68.378 47.6883C68.378 47.9755 68.2042 48.1371 67.8581 48.1714L67.3383 48.2236C66.5167 48.3036 65.9066 48.5973 65.5081 49.1049C65.1096 49.6124 64.9095 50.2049 64.9095 50.8838V55.3572C64.9095 55.5302 64.8636 55.6624 64.7701 55.7538C64.6783 55.8452 64.5504 55.8926 64.388 55.8926C64.2256 55.8926 64.0961 55.8469 63.9977 55.7538C63.8993 55.6608 63.8501 55.5286 63.8501 55.3572V47.7927C63.8501 47.6197 63.8993 47.4875 63.9977 47.3961C64.0961 47.3047 64.2256 47.2574 64.388 47.2574C64.5389 47.2574 64.6602 47.3031 64.7521 47.3961C64.8439 47.4892 64.8915 47.6148 64.8915 47.7764V48.8992C65.3654 47.9086 66.2444 47.3684 67.5285 47.2754L67.7712 47.2574C67.991 47.246 68.1468 47.2754 68.2402 47.3439L68.2386 47.3423Z" fill="#545454"></path><path d="M75.1965 55.4584C75.1965 55.5971 75.144 55.7065 75.0407 55.7864C74.9374 55.8664 74.7685 55.9007 74.5372 55.8892L74.0518 55.855C73.1728 55.7978 72.5217 55.5302 72.1003 55.052C71.6772 54.5738 71.4673 53.8459 71.4673 52.8667V48.2725H70.1487C70.0093 48.2725 69.8995 48.235 69.8191 48.1599C69.7388 48.0848 69.6978 47.9836 69.6978 47.858C69.6978 47.7323 69.7388 47.6278 69.8191 47.5479C69.8995 47.4679 70.0093 47.4271 70.1487 47.4271H71.4673V45.2859C71.4673 45.1129 71.5132 44.9807 71.6067 44.8893C71.6985 44.7979 71.8264 44.7505 71.9888 44.7505C72.1511 44.7505 72.2807 44.7962 72.3791 44.8893C72.4775 44.9823 72.5267 45.1145 72.5267 45.2859V47.4271H74.6258C74.7767 47.4271 74.8915 47.4679 74.9735 47.5479C75.0538 47.6278 75.0948 47.7323 75.0948 47.858C75.0948 47.9836 75.0538 48.0848 74.9735 48.1599C74.8931 48.235 74.7767 48.2725 74.6258 48.2725H72.5267V52.9173C72.5267 53.6321 72.6661 54.1413 72.9432 54.4449C73.2204 54.7501 73.6549 54.9263 74.2453 54.972L74.7144 55.0063C75.0374 55.0406 75.1998 55.1907 75.1998 55.4551L75.1965 55.4584Z" fill="#545454"></path><path d="M84.3948 50.4676V55.3556C84.3948 55.5171 84.3489 55.6461 84.2554 55.744C84.1636 55.8419 84.0356 55.8909 83.8733 55.8909C83.7109 55.8909 83.5814 55.8419 83.483 55.744C83.3846 55.6461 83.3354 55.5171 83.3354 55.3556V50.5378C83.3354 49.7087 83.1681 49.1048 82.8319 48.7246C82.4957 48.3443 81.9644 48.155 81.2363 48.155C80.4032 48.155 79.7357 48.408 79.2322 48.9155C78.7288 49.4231 78.4779 50.102 78.4779 50.954V55.3572C78.4779 55.5188 78.4319 55.6477 78.3385 55.7456C78.2466 55.8436 78.1187 55.8925 77.9564 55.8925C77.794 55.8925 77.6645 55.8436 77.5661 55.7456C77.4677 55.6477 77.4185 55.5188 77.4185 55.3572V47.7927C77.4185 47.6311 77.4677 47.5022 77.5661 47.4043C77.6645 47.3063 77.794 47.2574 77.9564 47.2574C78.1072 47.2574 78.2286 47.3031 78.3204 47.3961C78.4123 47.4891 78.4598 47.6148 78.4598 47.7764V48.8649C78.7255 48.3362 79.1109 47.9298 79.6143 47.6474C80.1178 47.3651 80.6984 47.2247 81.3576 47.2247C83.3813 47.2247 84.3948 48.3068 84.3948 50.4709V50.4676Z" fill="#545454"></path><path d="M94.5713 54.1381C94.6467 54.2246 94.6844 54.3258 94.6844 54.44C94.6844 54.693 94.4876 54.9411 94.094 55.1826C93.2609 55.6771 92.3819 55.9252 91.457 55.9252C90.1729 55.9252 89.1611 55.54 88.4198 54.7681C87.6786 53.9961 87.3096 52.9369 87.3096 51.5905C87.3096 50.7271 87.4736 49.965 87.8048 49.3024C88.1345 48.6397 88.5969 48.1289 89.1939 47.765C89.7892 47.4027 90.4747 47.2215 91.2504 47.2215C92.3376 47.2215 93.197 47.5691 93.8267 48.266C94.4581 48.9629 94.773 49.9209 94.773 51.1417C94.773 51.3489 94.727 51.5023 94.6336 51.5986C94.5401 51.6966 94.3909 51.7455 94.1826 51.7455H88.4034C88.4379 52.8047 88.715 53.6109 89.2365 54.1626C89.7564 54.7158 90.4911 54.9917 91.4406 54.9917C91.9375 54.9917 92.354 54.9247 92.6902 54.7925C93.0264 54.6604 93.3839 54.4841 93.766 54.2654C94.0202 54.0924 94.2006 54.0059 94.3039 54.0059C94.4073 54.0059 94.4975 54.0483 94.5729 54.1348L94.5713 54.1381ZM89.3054 48.8454C88.82 49.3513 88.5297 50.0596 88.4379 50.9687H93.8005C93.7775 50.0482 93.5463 49.3366 93.1068 48.8356C92.6673 48.3346 92.0474 48.0848 91.2504 48.0848C90.4533 48.0848 89.7924 48.3378 89.307 48.8454H89.3054Z" fill="#545454"></path><path d="M102.059 47.3423C102.151 47.4108 102.198 47.5267 102.198 47.6883C102.198 47.9755 102.024 48.1371 101.678 48.1714L101.159 48.2236C100.337 48.3036 99.7269 48.5973 99.3284 49.1049C98.9299 49.6124 98.7298 50.2049 98.7298 50.8838V55.3572C98.7298 55.5302 98.6839 55.6624 98.5904 55.7538C98.4969 55.8452 98.3707 55.8926 98.2083 55.8926C98.046 55.8926 97.9164 55.8469 97.818 55.7538C97.7196 55.6608 97.6704 55.5286 97.6704 55.3572V47.7927C97.6704 47.6197 97.7196 47.4875 97.818 47.3961C97.9164 47.3047 98.046 47.2574 98.2083 47.2574C98.3592 47.2574 98.4805 47.3031 98.5724 47.3961C98.6642 47.4892 98.7118 47.6148 98.7118 47.7764V48.8992C99.1857 47.9086 100.065 47.3684 101.349 47.2754L101.592 47.2574C101.811 47.246 101.967 47.2754 102.061 47.3439L102.059 47.3423Z" fill="#545454"></path><path d="M105.452 55.7261C104.983 55.5939 104.57 55.4127 104.211 55.1826C103.991 55.0325 103.839 54.9035 103.752 54.7942C103.665 54.6848 103.622 54.5608 103.622 54.4237C103.622 54.3095 103.66 54.2115 103.735 54.1299C103.811 54.05 103.901 54.0092 104.004 54.0092C104.107 54.0092 104.288 54.0957 104.542 54.2687C104.877 54.4874 105.221 54.6652 105.575 54.804C105.928 54.9427 106.371 55.0112 106.902 55.0112C107.584 55.0112 108.117 54.8872 108.499 54.6391C108.881 54.3911 109.072 54.0369 109.072 53.5767C109.072 53.3009 109.003 53.0724 108.863 52.8945C108.724 52.7166 108.493 52.5615 108.17 52.4277C107.845 52.2955 107.382 52.1666 106.781 52.0393C105.751 51.8092 105.019 51.5121 104.585 51.1498C104.15 50.7875 103.934 50.3012 103.934 49.6908C103.934 48.9547 104.222 48.359 104.801 47.9037C105.38 47.4483 106.131 47.2215 107.058 47.2215C107.509 47.2215 107.94 47.2786 108.35 47.3945C108.76 47.5104 109.116 47.6768 109.418 47.8955C109.823 48.1713 110.024 48.4423 110.024 48.7067C110.024 48.8225 109.987 48.9221 109.911 49.0086C109.836 49.0951 109.747 49.1375 109.642 49.1375C109.526 49.1375 109.347 49.0461 109.104 48.8617C108.793 48.643 108.483 48.4667 108.176 48.3346C107.87 48.2024 107.479 48.1354 107.005 48.1354C106.403 48.1354 105.923 48.2709 105.565 48.5418C105.206 48.8127 105.028 49.1783 105.028 49.6386C105.028 49.9029 105.088 50.1216 105.21 50.2946C105.331 50.4676 105.539 50.6194 105.834 50.7516C106.13 50.8838 106.554 51.0144 107.11 51.14C107.909 51.3245 108.522 51.5203 108.95 51.7276C109.378 51.9348 109.685 52.1829 109.87 52.4701C110.056 52.7574 110.147 53.1262 110.147 53.575C110.147 54.2768 109.849 54.8448 109.254 55.2756C108.658 55.7081 107.868 55.9236 106.886 55.9236C106.4 55.9236 105.923 55.8566 105.454 55.7244L105.452 55.7261Z" fill="#545454"></path><path d="M120.123 50.4676V55.3556C120.123 55.5172 120.077 55.6461 119.983 55.744C119.892 55.8419 119.764 55.8909 119.601 55.8909C119.439 55.8909 119.309 55.8419 119.211 55.744C119.113 55.6461 119.063 55.5172 119.063 55.3556V50.5378C119.063 49.7087 118.896 49.1049 118.56 48.7246C118.224 48.3443 117.692 48.155 116.964 48.155C116.131 48.155 115.464 48.408 114.96 48.9156C114.457 49.4231 114.206 50.102 114.206 50.954V55.3572C114.206 55.5188 114.16 55.6477 114.066 55.7457C113.975 55.8436 113.847 55.8925 113.684 55.8925C113.522 55.8925 113.392 55.8436 113.294 55.7457C113.196 55.6477 113.146 55.5188 113.146 55.3572V44.0798C113.146 43.9182 113.196 43.7893 113.294 43.6914C113.392 43.5935 113.522 43.5445 113.684 43.5445C113.847 43.5445 113.973 43.5935 114.066 43.6914C114.158 43.7893 114.206 43.9182 114.206 44.0798V48.8291C114.472 48.3117 114.857 47.9135 115.36 47.6377C115.864 47.3618 116.439 47.2231 117.087 47.2231C119.111 47.2231 120.124 48.3052 120.124 50.4693L120.123 50.4676Z" fill="#545454"></path><path d="M123.55 45.0982C123.406 44.9595 123.334 44.7816 123.334 44.5629C123.334 44.3328 123.406 44.1484 123.55 44.0096C123.695 43.8709 123.883 43.8024 124.115 43.8024C124.346 43.8024 124.534 43.8709 124.679 44.0096C124.823 44.1484 124.895 44.3328 124.895 44.5629C124.895 44.793 124.823 44.9595 124.679 45.0982C124.534 45.2369 124.346 45.3055 124.115 45.3055C123.883 45.3055 123.695 45.2369 123.55 45.0982ZM123.724 55.7538C123.626 55.6624 123.577 55.5286 123.577 55.3572V47.7927C123.577 47.6197 123.626 47.4875 123.724 47.3961C123.823 47.3047 123.952 47.2574 124.115 47.2574C124.277 47.2574 124.403 47.3031 124.497 47.3961C124.589 47.4892 124.636 47.6213 124.636 47.7927V55.3572C124.636 55.5302 124.59 55.6624 124.497 55.7538C124.403 55.8452 124.277 55.8925 124.115 55.8925C123.952 55.8925 123.823 55.8468 123.724 55.7538Z" fill="#545454"></path><path d="M134.039 47.7649C134.607 48.1272 135.046 48.6397 135.358 49.3023C135.669 49.9649 135.827 50.7336 135.827 51.6084C135.827 52.4832 135.671 53.229 135.358 53.8786C135.046 54.5297 134.605 55.0324 134.039 55.3898C133.472 55.7472 132.819 55.9251 132.078 55.9251C131.396 55.9251 130.805 55.7783 130.308 55.4845C129.811 55.1907 129.434 54.7615 129.18 54.1984V58.4646C129.18 58.6262 129.134 58.7551 129.041 58.853C128.949 58.9509 128.821 58.9999 128.659 58.9999C128.496 58.9999 128.367 58.9509 128.268 58.853C128.17 58.7551 128.121 58.6262 128.121 58.4646V47.7927C128.121 47.6311 128.17 47.5022 128.268 47.4042C128.367 47.3063 128.496 47.2574 128.659 47.2574C128.821 47.2574 128.947 47.3063 129.041 47.4042C129.132 47.5022 129.18 47.6311 129.18 47.7927V48.9498C129.434 48.3851 129.81 47.9575 130.308 47.6637C130.805 47.37 131.396 47.2231 132.078 47.2231C132.817 47.2231 133.472 47.4042 134.039 47.7666V47.7649ZM133.997 54.1021C134.489 53.5097 134.735 52.6774 134.735 51.6067C134.735 50.5361 134.489 49.6614 133.997 49.051C133.505 48.4406 132.819 48.1354 131.94 48.1354C131.061 48.1354 130.38 48.4357 129.902 49.033C129.421 49.632 129.182 50.4774 129.182 51.5708C129.182 52.6643 129.418 53.5081 129.893 54.1005C130.367 54.6929 131.045 54.99 131.924 54.99C132.803 54.99 133.505 54.6929 133.997 54.1005V54.1021Z" fill="#545454"></path><path d="M140.053 55.7261C139.584 55.5939 139.171 55.4127 138.812 55.1826C138.592 55.0325 138.44 54.9035 138.353 54.7942C138.266 54.6848 138.223 54.5608 138.223 54.4237C138.223 54.3095 138.261 54.2115 138.336 54.1299C138.412 54.05 138.502 54.0092 138.605 54.0092C138.709 54.0092 138.889 54.0957 139.143 54.2687C139.478 54.4874 139.822 54.6652 140.176 54.804C140.529 54.9427 140.972 55.0112 141.503 55.0112C142.185 55.0112 142.718 54.8872 143.1 54.6391C143.482 54.3911 143.673 54.0369 143.673 53.5767C143.673 53.3009 143.604 53.0724 143.464 52.8945C143.325 52.7166 143.094 52.5615 142.771 52.4277C142.446 52.2955 141.984 52.1666 141.382 52.0393C140.352 51.8092 139.62 51.5121 139.186 51.1498C138.753 50.7875 138.535 50.3012 138.535 49.6908C138.535 48.9547 138.823 48.359 139.402 47.9037C139.981 47.4483 140.732 47.2215 141.659 47.2215C142.11 47.2215 142.541 47.2786 142.951 47.3945C143.361 47.5104 143.717 47.6768 144.019 47.8955C144.424 48.1713 144.626 48.4423 144.626 48.7067C144.626 48.8225 144.588 48.9221 144.512 49.0086C144.437 49.0951 144.348 49.1375 144.243 49.1375C144.127 49.1375 143.948 49.0461 143.705 48.8617C143.394 48.643 143.084 48.4667 142.777 48.3346C142.471 48.2024 142.08 48.1354 141.606 48.1354C141.004 48.1354 140.524 48.2709 140.166 48.5418C139.807 48.8127 139.629 49.1783 139.629 49.6386C139.629 49.9029 139.689 50.1216 139.811 50.2946C139.932 50.4676 140.14 50.6194 140.435 50.7516C140.731 50.8838 141.155 51.0144 141.711 51.14C142.51 51.3245 143.123 51.5203 143.551 51.7276C143.979 51.9348 144.286 52.1829 144.471 52.4701C144.657 52.7574 144.749 53.1262 144.749 53.575C144.749 54.2768 144.45 54.8448 143.855 55.2756C143.259 55.7081 142.469 55.9236 141.487 55.9236C141.001 55.9236 140.524 55.8566 140.055 55.7244L140.053 55.7261Z" fill="#545454"></path><path d="M2.67311 40.3621C0.954449 38.6142 0 36.3342 0 33.9417C0 31.5491 0.954449 29.2675 2.67311 27.5196C4.39178 25.8092 6.68279 24.8985 9.12631 24.8985C10.7302 24.8985 12.1815 25.4681 13.441 26.6089L13.6312 26.7607V25.2412H18.251V42.6437H13.6312V41.2761L13.441 41.4654C12.0667 42.7955 10.5006 42.9848 9.12631 42.9848C6.7205 42.9848 4.4295 42.0725 2.67311 40.3637V40.3621ZM4.61973 33.94C4.61973 36.4485 6.68115 38.5375 9.12467 38.5375C11.5682 38.5375 13.6296 36.4485 13.6296 33.94C13.6296 31.4316 11.5682 29.3426 9.12467 29.3426C6.68115 29.3426 4.61973 31.4707 4.61973 33.94Z" fill="#00427F"></path><path d="M24.8552 51.3817C24.1303 51.0014 23.4809 50.3943 23.1759 50.1283L22.5642 49.5212L25.9999 46.5198L26.4968 46.9376C27.5283 47.6982 28.8255 48.2302 29.8948 48.3053C32.4908 48.2677 34.6293 46.0629 34.6293 43.4043V41.201L34.4391 41.3903C33.1025 42.6829 31.843 42.8722 30.4294 42.9489H29.78C27.4119 42.8722 25.3127 41.9991 23.6712 40.3654C21.9525 38.6175 20.998 36.3375 20.998 33.9433C20.998 31.5491 21.9525 29.2691 23.6712 27.5212C25.4275 25.8108 27.7186 24.9001 30.1244 24.9001C31.9955 24.9001 33.2927 25.3947 34.4391 26.5338L34.6293 26.6856V25.2412H39.249V43.4418C39.249 45.9502 38.2569 48.2677 36.4628 50.0157C34.7441 51.8011 32.4154 52.751 29.8964 52.751C28.0646 52.751 26.3082 52.2956 24.8568 51.3833L24.8552 51.3817ZM25.6194 33.9417C25.6194 36.4501 27.6808 38.5391 30.1244 38.5391C32.5679 38.5391 34.6293 36.4501 34.6293 33.9417C34.6293 31.4332 32.5679 29.3067 30.1244 29.3067C27.6808 29.3067 25.6194 31.4348 25.6194 33.9417Z" fill="#00427F"></path><path d="M44.2112 40.3996C42.4925 38.6142 41.5381 36.2967 41.5381 33.94C41.5381 31.5833 42.4925 29.2283 44.2112 27.4804C45.9676 25.8092 48.2586 24.8593 50.7021 24.8593C53.1456 24.8593 55.5121 25.8092 57.1553 27.4804C58.9117 29.2283 59.8661 31.5083 59.8661 33.94C59.8661 36.3717 58.9117 38.6517 57.1553 40.3996C55.4366 42.11 53.1456 43.0599 50.7021 43.0599C48.2586 43.0599 46.0053 42.11 44.2112 40.3996ZM46.0447 33.94C46.0447 36.5611 48.1454 38.6892 50.7021 38.6892C53.2588 38.6892 55.3989 36.5611 55.3989 33.94C55.3989 31.3189 53.2982 29.1908 50.7021 29.1908C48.1061 29.1908 46.0447 31.3189 46.0447 33.94Z" fill="#00427F"></path><path d="M62.5752 42.642V25.2396H67.3852V26.6448C68.7594 25.2771 70.8208 24.8201 72.1968 24.8201H73.3414L72.1968 29.5694H71.4719C69.2186 29.5694 67.3868 31.3173 67.3868 33.4063V42.6388H62.5768L62.5752 42.642Z" fill="#00427F"></path><path d="M76.4724 40.3621C74.7538 38.6142 73.7993 36.3342 73.7993 33.94C73.7993 31.5458 74.7538 29.2658 76.4724 27.5179C78.1911 25.8075 80.4821 24.8969 82.9256 24.8969C84.5295 24.8969 85.9808 25.4664 87.2403 26.6072L87.4306 26.759V25.2396H92.0503V42.6421H87.4306V41.2744L87.2403 41.4637C85.866 42.7938 84.2999 42.9832 82.9256 42.9832C80.5198 42.9832 78.2288 42.0708 76.4724 40.3621ZM78.419 33.94C78.419 36.4485 80.4805 38.5375 82.924 38.5375C85.3675 38.5375 87.4289 36.4485 87.4289 33.94C87.4289 31.4316 85.3675 29.3425 82.924 29.3425C80.4805 29.3425 78.419 31.4707 78.419 33.94Z" fill="#00427F"></path><path d="M105.219 39.2115C105.219 39.8389 105.73 40.3474 106.361 40.3474C106.991 40.3474 107.502 39.8389 107.502 39.2115V19.9926C107.502 19.3652 106.991 18.8567 106.361 18.8567C105.73 18.8567 105.219 19.3652 105.219 19.9926V39.2115Z" fill="url(#paint0_linear_1587_12116)"></path><path d="M100.821 37.2628C100.821 37.919 101.355 38.4509 102.015 38.4509C102.674 38.4509 103.208 37.919 103.208 37.2628V23.3268C103.208 22.6706 102.674 22.1387 102.015 22.1387C101.355 22.1387 100.821 22.6706 100.821 23.3268V37.2628Z" fill="url(#paint1_linear_1587_12116)"></path><path d="M96.394 33.9073C96.394 34.5572 96.9234 35.084 97.5764 35.084C98.2294 35.084 98.7588 34.5572 98.7588 33.9073V26.5599C98.7588 25.91 98.2294 25.3832 97.5764 25.3832C96.9234 25.3832 96.394 25.91 96.394 26.5599V33.9073Z" fill="url(#paint2_linear_1587_12116)"></path><path d="M116.393 19.32L111.262 16.0054C110.775 15.6903 110.123 15.8283 109.806 16.3137L109.805 16.3151C109.489 16.8004 109.627 17.4493 110.115 17.7644L115.246 21.079C115.734 21.3941 116.386 21.2561 116.702 20.7707L116.703 20.7693C117.02 20.284 116.881 19.6351 116.393 19.32Z" fill="url(#paint3_linear_1587_12116)"></path><path d="M106.895 13.0374L101.398 9.4864C100.911 9.17132 100.258 9.30936 99.9419 9.79473L99.941 9.7961C99.6244 10.2815 99.7631 10.9304 100.251 11.2454L105.747 14.7964C106.235 15.1115 106.887 14.9735 107.204 14.4881L107.205 14.4867C107.521 14.0014 107.383 13.3525 106.895 13.0374Z" fill="url(#paint4_linear_1587_12116)"></path><path d="M102.236 15.894L92.0173 9.42521C91.5266 9.11463 90.8759 9.25867 90.5638 9.74693L90.563 9.74831C90.2509 10.2366 90.3956 10.8842 90.8862 11.1947L101.105 17.6635C101.596 17.9741 102.246 17.83 102.559 17.3418L102.559 17.3404C102.871 16.8521 102.727 16.2046 102.236 15.894Z" fill="url(#paint5_linear_1587_12116)"></path><path d="M98.0686 19.2616L84.3263 10.6092C83.8349 10.2998 83.1845 10.4454 82.8736 10.9345L82.8727 10.9358C82.5619 11.4249 82.7082 12.0721 83.1996 12.3815L96.942 21.0339C97.4333 21.3432 98.0837 21.1976 98.3946 20.7086L98.3955 20.7072C98.7063 20.2182 98.56 19.571 98.0686 19.2616Z" fill="url(#paint6_linear_1587_12116)"></path><path d="M121.257 27.9638L106.803 18.8638C106.312 18.5544 105.662 18.7 105.351 19.189L105.35 19.1904C105.039 19.6794 105.185 20.3267 105.677 20.6361L120.13 29.7361C120.621 30.0454 121.272 29.8998 121.583 29.4108L121.583 29.4094C121.894 28.9204 121.748 28.2732 121.257 27.9638Z" fill="url(#paint7_linear_1587_12116)"></path><path d="M113.319 28.9263L102.501 22.1151C102.01 21.8057 101.359 21.9513 101.048 22.4403L101.048 22.4417C100.737 22.9307 100.883 23.5779 101.374 23.8873L112.193 30.6986C112.684 31.008 113.334 30.8623 113.645 30.3733L113.646 30.372C113.957 29.8829 113.811 29.2357 113.319 28.9263Z" fill="url(#paint8_linear_1587_12116)"></path><path d="M106.393 14.9626H106.395C107.005 14.9626 107.5 14.4701 107.5 13.8626V6.02062C107.5 5.41311 107.005 4.92062 106.395 4.92062H106.393C105.783 4.92062 105.288 5.41311 105.288 6.02062V13.8626C105.288 14.4701 105.783 14.9626 106.393 14.9626Z" fill="url(#paint9_linear_1587_12116)"></path><path d="M101.929 17.9704H101.931C102.59 17.9704 103.125 17.4385 103.125 16.7823V2.87073C103.125 2.21455 102.59 1.68261 101.931 1.68261H101.929C101.27 1.68261 100.736 2.21455 100.736 2.87073V16.7823C100.736 17.4385 101.27 17.9704 101.929 17.9704Z" fill="url(#paint10_linear_1587_12116)"></path><path d="M96.3999 20.0562C96.3999 20.7088 96.9312 21.2378 97.5864 21.2378C98.2417 21.2378 98.7729 20.7088 98.7729 20.0562V1.18161C98.7729 0.529032 98.2417 1.14441e-05 97.5864 1.14441e-05C96.9312 1.14441e-05 96.3999 0.529032 96.3999 1.18161V20.0562Z" fill="url(#paint11_linear_1587_12116)"></path></g><defs><linearGradient id="paint0_linear_1587_12116" x1="106.361" y1="40.3474" x2="106.361" y2="18.8567" gradientUnits="userSpaceOnUse"><stop stop-color="#EB9B1A"></stop><stop offset="0.61" stop-color="#E57B2C"></stop><stop offset="1" stop-color="#E2663A"></stop></linearGradient><linearGradient id="paint1_linear_1587_12116" x1="102.015" y1="38.4493" x2="102.015" y2="22.137" gradientUnits="userSpaceOnUse"><stop stop-color="#EB9B1A"></stop><stop offset="0.61" stop-color="#E57B2C"></stop><stop offset="1" stop-color="#E2663A"></stop></linearGradient><linearGradient id="paint2_linear_1587_12116" x1="97.5764" y1="35.084" x2="97.5764" y2="25.3832" gradientUnits="userSpaceOnUse"><stop stop-color="#EB9B1A"></stop><stop offset="0.61" stop-color="#E57B2C"></stop><stop offset="1" stop-color="#E2663A"></stop></linearGradient><linearGradient id="paint3_linear_1587_12116" x1="113.277" y1="17.855" x2="114.502" y2="14.9421" gradientUnits="userSpaceOnUse"><stop stop-color="#02804C"></stop><stop offset="0.49" stop-color="#068A4D"></stop><stop offset="1" stop-color="#0D9A51"></stop></linearGradient><linearGradient id="paint4_linear_1587_12116" x1="107.342" y1="14.2462" x2="104.69" y2="7.34623" gradientUnits="userSpaceOnUse"><stop offset="0.05" stop-color="#00427F"></stop><stop offset="0.25" stop-color="#015F99"></stop><stop offset="0.44" stop-color="#0275AD"></stop><stop offset="0.63" stop-color="#0382B9"></stop><stop offset="0.8" stop-color="#0487BE"></stop></linearGradient><linearGradient id="paint5_linear_1587_12116" x1="99.1261" y1="14.9133" x2="97.8093" y2="5.14243" gradientUnits="userSpaceOnUse"><stop offset="0.05" stop-color="#00427F"></stop><stop offset="0.25" stop-color="#015F99"></stop><stop offset="0.44" stop-color="#0275AD"></stop><stop offset="0.63" stop-color="#0382B9"></stop><stop offset="0.8" stop-color="#0487BE"></stop></linearGradient><linearGradient id="paint6_linear_1587_12116" x1="93.4372" y1="17.3554" x2="93.2781" y2="6.42358" gradientUnits="userSpaceOnUse"><stop offset="0.05" stop-color="#00427F"></stop><stop offset="0.25" stop-color="#015F99"></stop><stop offset="0.44" stop-color="#0275AD"></stop><stop offset="0.63" stop-color="#0382B9"></stop><stop offset="0.8" stop-color="#0487BE"></stop></linearGradient><linearGradient id="paint7_linear_1587_12116" x1="111.517" y1="22.5149" x2="113.099" y2="19.5207" gradientUnits="userSpaceOnUse"><stop stop-color="#02804C"></stop><stop offset="0.49" stop-color="#068A4D"></stop><stop offset="1" stop-color="#0D9A51"></stop></linearGradient><linearGradient id="paint8_linear_1587_12116" x1="105.994" y1="24.9589" x2="107.489" y2="21.9745" gradientUnits="userSpaceOnUse"><stop stop-color="#02804C"></stop><stop offset="0.49" stop-color="#068A4D"></stop><stop offset="1" stop-color="#0D9A51"></stop></linearGradient><linearGradient id="paint9_linear_1587_12116" x1="106.395" y1="14.961" x2="106.395" y2="4.91899" gradientUnits="userSpaceOnUse"><stop stop-color="#CD2768"></stop><stop offset="0.8" stop-color="#AD1C51"></stop><stop offset="1" stop-color="#A5194B"></stop></linearGradient><linearGradient id="paint10_linear_1587_12116" x1="101.929" y1="17.9704" x2="101.929" y2="1.68261" gradientUnits="userSpaceOnUse"><stop stop-color="#CD2768"></stop><stop offset="0.8" stop-color="#AD1C51"></stop><stop offset="1" stop-color="#A5194B"></stop></linearGradient><linearGradient id="paint11_linear_1587_12116" x1="97.5856" y1="21.2345" x2="97.5856" y2="-0.00325264" gradientUnits="userSpaceOnUse"><stop stop-color="#CD2768"></stop><stop offset="0.8" stop-color="#AD1C51"></stop><stop offset="1" stop-color="#A5194B"></stop></linearGradient><clipPath id="clip0_1587_12116"><rect width="144.747" height="59" fill="white"></rect></clipPath></defs></svg>